PathFileType	4	(X/Y/Z)	s04c0403.trc
DataRate	CameraRate	NumFrames	NumMarkers	Units	OrigDataRate	OrigDataStartFrame	OrigNumFrames
200	200	4	50	mm	200	750	2000
Frame#	Time	racr			lacr			c7			jug			rlel			rdr			llel			ldr			s2			lic			ric			lasi			rasi			rpsi			lpsi			rgt			lgt			rth1			rth2			rth3			rth4			rlfc			rmfc			rsh1			rsh2			rsh3			rsh4			rlmal			rmmal			rcal			rtoe			rmt5			lth1			lth2			lth4			lth3			llfc			lmfc			lsh1			lsh2			lsh3			lsh4			llmal			lmmal			lcal			ltoe			lmt5			SBIKE			LBIKE			RBIKE			
		X1	Y1	Z1	X2	Y2	Z2	X3	Y3	Z3	X4	Y4	Z4	X5	Y5	Z5	X6	Y6	Z6	X7	Y7	Z7	X8	Y8	Z8	X9	Y9	Z9	X10	Y10	Z10	X11	Y11	Z11	X12	Y12	Z12	X13	Y13	Z13	X14	Y14	Z14	X15	Y15	Z15	X16	Y16	Z16	X17	Y17	Z17	X18	Y18	Z18	X19	Y19	Z19	X20	Y20	Z20	X21	Y21	Z21	X22	Y22	Z22	X23	Y23	Z23	X24	Y24	Z24	X25	Y25	Z25	X26	Y26	Z26	X27	Y27	Z27	X28	Y28	Z28	X29	Y29	Z29	X30	Y30	Z30	X31	Y31	Z31	X32	Y32	Z32	X33	Y33	Z33	X34	Y34	Z34	X35	Y35	Z35	X36	Y36	Z36	X37	Y37	Z37	X38	Y38	Z38	X39	Y39	Z39	X40	Y40	Z40	X41	Y41	Z41	X42	Y42	Z42	X43	Y43	Z43	X44	Y44	Z44	X45	Y45	Z45	X46	Y46	Z46	X47	Y47	Z47	X48	Y48	Z48	X49	Y49	Z49	X50	Y50	Z50	
750	3.7500	776.534656	1380.709528	-148.492145	810.067316	1382.955929	-474.401098	771.117277	1481.590593	-325.912369	761.940366	1326.625985	-322.398460	537.883254	1175.279865	-10.904411	694.015067	948.579129	-73.427847	599.467981	1174.427096	-577.836055	682.024754	922.755942	-480.775574	209.095800	1251.998071	-362.872676	374.264176	1242.969577	-503.914302	349.835851	1242.749268	-182.496907	410.983114	1190.542567	-459.379499	388.534902	1184.806201	-225.991451	238.301541	1292.554909	-313.717206	244.206160	1295.342208	-388.698113	284.397890	1185.073990	-176.146380	343.216855	1147.130884	-527.179800	320.256478	1034.652735	-135.169492	354.569790	953.321521	-137.318508	346.825085	868.348079	-138.538674	389.800867	959.565027	-148.123261	368.720554	721.599971	-150.459499	350.171115	692.708135	-260.661664	320.694480	604.834842	-115.858991	317.264824	513.853101	-123.978452	269.093430	442.618429	-126.537682	350.005575	506.464754	-144.842922	235.470824	292.638731	-123.655321	257.658200	293.258515	-206.716378	169.072229	297.754896	-154.565231	422.575344	130.814156	-167.903865	356.465228	142.022791	-106.792670	397.248871	1070.991312	-525.886462	469.950590	1024.713237	-514.350057	493.514904	1048.691175	-501.621988	511.213818	946.306733	-508.439584	581.899753	818.118599	-464.831478	585.991786	796.728222	-348.265423	497.518160	744.956676	-488.909840	431.296899	693.342747	-467.217209	344.023157	672.932085	-472.253338	442.129382	675.640748	-433.424622	209.734343	611.243085	-472.233521	0.000000	0.000000	-0.000000	141.875096	669.563022	-442.060994	289.173289	406.744168	-402.688270	227.331483	442.303707	-474.454813	-184.425589	930.321488	-286.438658	-17.521322	79.098557	-485.208251	-17.303279	79.118580	-84.593576	
751	3.7550	776.212569	1381.607861	-150.753386	810.902378	1381.718746	-476.368608	771.322964	1481.502281	-328.518787	761.814895	1326.474591	-324.323103	538.847004	1175.811813	-11.837026	694.179937	948.829784	-74.730193	599.509010	1173.813059	-579.367012	681.779075	922.733124	-480.922412	208.645651	1252.923231	-362.095444	372.566604	1244.335588	-504.241994	350.767943	1242.946062	-182.701413	410.415716	1191.978835	-459.890010	389.139057	1185.053322	-226.676361	237.805401	1293.464902	-313.165784	243.471667	1296.380949	-387.881074	284.627326	1185.151124	-176.558860	342.144623	1148.944829	-527.431663	319.433860	1034.730669	-135.201393	353.084737	953.119148	-137.339475	344.659129	868.238822	-138.507654	388.351614	959.066587	-148.210199	365.404987	721.398481	-150.236849	346.935098	692.322159	-260.602757	317.366362	604.708962	-115.467399	314.285429	513.775181	-123.350802	266.297649	442.339115	-125.702780	347.056362	506.431622	-144.081991	233.494616	292.038236	-122.351921	255.316697	292.611828	-205.577620	167.349513	298.566231	-153.107876	417.870581	127.114494	-168.092817	352.169882	138.755789	-107.405563	396.486419	1072.928284	-526.175526	469.487268	1026.992921	-514.652592	493.341624	1051.105876	-501.351657	511.167308	948.762922	-508.402938	582.831734	821.394339	-464.783486	587.011950	800.010284	-348.116512	498.810417	748.046438	-488.835327	432.797846	695.967275	-467.318836	345.768631	675.143984	-472.263368	443.717522	678.275726	-433.561081	211.564294	613.240638	-472.336789	0.000000	0.000000	-0.000000	142.646735	670.543025	-442.274007	294.725945	410.581280	-402.877266	232.172682	444.993205	-474.780191	-184.517319	930.268195	-286.492998	-17.535252	79.062825	-485.219134	-17.321580	79.134573	-84.619745	
752	3.7600	775.908040	1382.543282	-152.989375	811.702303	1380.494969	-478.283989	771.652670	1481.457457	-331.176607	761.730088	1326.378832	-326.232068	539.804852	1176.287542	-12.846056	694.466733	948.993288	-75.853171	599.690852	1173.255269	-580.953559	681.595333	922.746981	-481.132452	208.206874	1254.196762	-361.355277	371.087412	1245.895727	-504.701072	351.752647	1243.314481	-182.888365	409.235531	1193.629686	-460.553829	389.644363	1185.676615	-227.382714	238.821367	1294.368366	-311.563437	242.977454	1297.824595	-387.323468	284.815133	1185.416491	-176.863893	341.125641	1150.919024	-527.757163	318.625481	1035.014941	-135.257207	351.608171	953.141646	-137.412720	342.441513	868.408185	-138.508317	386.848662	958.952391	-148.259340	362.005798	721.550809	-150.206719	343.559206	692.134575	-260.546345	314.177977	604.871894	-115.067257	311.349138	513.894571	-122.693101	263.651723	442.287970	-124.739056	344.218770	506.551028	-143.510330	231.745597	291.811493	-121.137729	253.340264	292.204938	-204.305413	165.695809	299.458184	-151.814500	412.330181	122.819243	-168.769233	347.780051	136.034391	-107.267549	395.880268	1075.039400	-526.441488	469.069533	1029.372251	-514.898793	492.796085	1053.704989	-501.709934	511.112858	951.471519	-508.382082	583.639347	824.579036	-464.711583	587.902202	803.432614	-348.016118	499.798395	751.165326	-488.912021	434.033013	698.725061	-467.432560	347.122631	677.489084	-472.428311	445.246477	681.053688	-434.056869	213.372294	615.078500	-472.495360	0.000000	0.000000	-0.000000	143.374979	671.272423	-442.517907	300.380536	414.433928	-402.911713	237.132372	447.321431	-474.933756	-184.577760	930.250701	-286.580728	-17.551829	79.065240	-485.210460	-17.324617	79.127189	-84.607890	
753	3.7650	775.623534	1383.423767	-155.288278	812.528179	1379.356377	-480.147168	772.153927	1481.557970	-333.998958	761.724577	1326.337685	-328.244844	540.742380	1176.738840	-13.981440	694.731874	949.191505	-76.811972	599.826403	1172.665705	-582.533835	681.335525	922.694533	-481.187504	207.784360	1255.656842	-360.675850	369.474567	1247.524883	-504.888502	352.692947	1243.998685	-183.013572	408.012547	1195.498884	-460.952091	390.126026	1186.330255	-227.913694	239.273322	1294.723761	-311.452537	242.658467	1299.202314	-386.990151	285.010861	1185.945520	-177.160761	340.130235	1153.170373	-528.033898	317.769004	1035.468296	-135.347667	350.086541	953.336483	-137.581728	340.258779	868.660764	-138.681627	385.355417	958.912466	-148.474546	358.643416	721.645827	-150.346321	339.906510	692.212945	-260.506017	311.007922	605.239207	-114.722772	308.580926	514.146219	-122.093930	261.197550	442.331320	-123.787733	341.380469	506.943305	-142.886281	229.869405	291.609171	-120.101948	251.600715	292.181540	-203.108676	164.122565	300.622998	-150.887517	407.543033	119.403779	-168.873534	343.217140	133.712217	-106.924381	395.287129	1077.398201	-526.724960	468.659616	1032.012824	-515.036764	492.329800	1056.471918	-501.909508	511.045856	954.258518	-508.340976	584.177672	827.871679	-464.722044	588.519741	806.802555	-347.953049	500.593568	754.314990	-488.951847	434.723668	701.213659	-467.105320	348.285590	679.923598	-472.615775	446.494970	683.487421	-434.824634	215.178791	616.909984	-472.857460	0.000000	0.000000	-0.000000	143.944850	671.698797	-442.733807	306.032593	418.210439	-403.084524	241.888747	449.367861	-474.740566	-184.629889	930.270236	-286.625150	-17.552965	79.067868	-485.223042	-17.318756	79.120513	-84.602912	
